<svg xmlns="http://www.w3.org/2000/svg" viewBox="0 0 615.15 352.7"><defs><style>.cls-1,.cls-4{fill:#3b3b3a;}.cls-1,.cls-2{fill-rule:evenodd;}.cls-2,.cls-3{fill:#009697;}.cls-5{fill:#1a1a18;}</style></defs><title>Zasób 1</title><g id="Warstwa_2" data-name="Warstwa 2"><g id="Warstwa_1-2" data-name="Warstwa 1"><polygon class="cls-1" points="0 255.11 393.69 0 393.69 28.36 0 283.46 0 255.11"/><polygon class="cls-2" points="615.15 125.19 393.69 28.36 393.69 56.72 615.15 153.55 615.15 125.19"/><path class="cls-3" d="M359,220.54a27.53,27.53,0,0,0-14,3.86,27.9,27.9,0,0,0-10.36,10.41,29,29,0,0,0-3.72,14.57A28,28,0,0,0,359,277.68a28.47,28.47,0,0,0,14.38-3.77,27,27,0,0,0,10.31-10.31,29,29,0,0,0,3.71-14.53,28.35,28.35,0,0,0-3.71-14.39,27.73,27.73,0,0,0-10.42-10.28A28.25,28.25,0,0,0,359,220.54Z"/><path class="cls-3" d="M278.12,220.54a27.54,27.54,0,0,0-14.05,3.86,28,28,0,0,0-10.36,10.41A29,29,0,0,0,250,249.38a28,28,0,0,0,28.13,28.3,28.41,28.41,0,0,0,14.37-3.77,27,27,0,0,0,10.32-10.31,29.05,29.05,0,0,0,3.7-14.53,28.45,28.45,0,0,0-3.7-14.39,27.68,27.68,0,0,0-10.43-10.28A28.24,28.24,0,0,0,278.12,220.54Z"/><path class="cls-4" d="M358.9,139.9a27.47,27.47,0,0,0-14,3.86,27.94,27.94,0,0,0-10.36,10.4,29,29,0,0,0-3.72,14.58A28.07,28.07,0,0,0,358.9,197a28.51,28.51,0,0,0,14.37-3.77A27,27,0,0,0,383.59,183a29.08,29.08,0,0,0,3.7-14.53,28.42,28.42,0,0,0-3.7-14.39,27.66,27.66,0,0,0-10.42-10.28,28.2,28.2,0,0,0-14.27-3.86Zm-.33-6.55q15.17,0,25.4,10.13a35.52,35.52,0,0,1,0,49.84,33.76,33.76,0,0,1-24.87,10.21A34.18,34.18,0,0,1,334,193.36a33.49,33.49,0,0,1-10.22-24.62,35.63,35.63,0,0,1,4.66-17.85,34.41,34.41,0,0,1,30.09-17.54Z"/><polygon class="cls-4" points="470.42 135.03 482.59 135.03 511.26 179 511.26 135.03 523.98 135.03 523.98 201.86 511.76 201.86 483.14 158.02 483.14 201.86 470.42 201.86 470.42 135.03"/><polygon class="cls-4" points="407.05 135.03 419.95 135.03 419.95 160.24 442.31 160.24 442.31 135.03 455.16 135.03 455.16 201.86 442.31 201.86 442.31 172.55 419.95 172.55 419.95 201.86 407.05 201.86 407.05 135.03"/><path class="cls-3" d="M358.88,139.87a27.54,27.54,0,0,0-14.05,3.86,28,28,0,0,0-10.36,10.41,29,29,0,0,0-3.72,14.58A28,28,0,0,0,358.88,197a28.5,28.5,0,0,0,14.37-3.76,27.08,27.08,0,0,0,10.31-10.31,29,29,0,0,0,3.71-14.53A28.3,28.3,0,0,0,383.56,154a27.68,27.68,0,0,0-10.42-10.29A28.24,28.24,0,0,0,358.88,139.87Z"/><path class="cls-4" d="M298.19,135H311v44.35q0,10.58-1.69,14.85a14.12,14.12,0,0,1-5.54,6.79,16.56,16.56,0,0,1-9.27,2.51q-11,0-18.81-9.67l9.18-8.58a21.54,21.54,0,0,0,5.18,4.63,8.57,8.57,0,0,0,4.14,1.19,3.26,3.26,0,0,0,3-1.74c.67-1.14,1-3.67,1-7.58Z"/><path class="cls-4" d="M419.93,228v42.12h5.89q8.73,0,12.66-2a15.2,15.2,0,0,0,6.43-6.72,24.7,24.7,0,0,0,2.5-11.63q0-10.62-6-16.5c-3.56-3.5-9.3-5.27-17.21-5.27ZM407.25,215.7h15.09q14.58,0,21.66,3.61a28.22,28.22,0,0,1,11.67,11.75,37.91,37.91,0,0,1,4.59,19,38.53,38.53,0,0,1-2.55,14.21A29.81,29.81,0,0,1,450.62,275a25.28,25.28,0,0,1-9.8,5.91q-5.26,1.64-18.27,1.63h-15.3Z"/><path class="cls-5" d="M359,220.57A27.44,27.44,0,0,0,345,224.43a27.87,27.87,0,0,0-10.36,10.4,29,29,0,0,0-3.72,14.58A28.07,28.07,0,0,0,359,277.71a28.51,28.51,0,0,0,14.37-3.77,26.94,26.94,0,0,0,10.31-10.31,29,29,0,0,0,3.71-14.53,28.3,28.3,0,0,0-3.71-14.39,27.58,27.58,0,0,0-10.42-10.28A28.14,28.14,0,0,0,359,220.57Zm-.33-6.55q15.17,0,25.4,10.13a35.13,35.13,0,0,1-24.86,60A34.16,34.16,0,0,1,334.15,274a33.45,33.45,0,0,1-10.22-24.62,35.62,35.62,0,0,1,4.65-17.85A34.36,34.36,0,0,1,358.68,214Z"/><path class="cls-4" d="M278.14,220.57a28.45,28.45,0,0,0-24.4,14.26A28.9,28.9,0,0,0,250,249.41a28.07,28.07,0,0,0,28.13,28.3,28.57,28.57,0,0,0,14.38-3.77,27.08,27.08,0,0,0,10.31-10.31,29.08,29.08,0,0,0,3.7-14.53,28.4,28.4,0,0,0-3.7-14.39,27.66,27.66,0,0,0-10.42-10.28,28.15,28.15,0,0,0-14.27-3.86Zm-.32-6.55q15.17,0,25.4,10.13a35.13,35.13,0,0,1-24.86,60A34.16,34.16,0,0,1,253.29,274a33.45,33.45,0,0,1-10.22-24.62,35.62,35.62,0,0,1,4.65-17.85A34.36,34.36,0,0,1,277.82,214Z"/><polygon class="cls-4" points="156.67 215.7 169.21 215.7 178.84 258.35 190.78 215.7 201.37 215.7 213.45 258.35 222.99 215.7 235.53 215.7 220.49 282.53 208.27 282.53 195.96 239.33 183.88 282.53 171.8 282.53 156.67 215.7"/><path class="cls-4" d="M1.08,318.83H6.43L10.53,337l5.09-18.17h4.51L25.28,337l4.06-18.17h5.34L28.27,347.3h-5.2l-5.25-18.41L12.68,347.3H7.53L1.08,318.83ZM0,350.9H35.67v1.8H0v-1.8Zm53.84-28.2-4,3.54q-2.12-2.94-4.3-2.94a2.65,2.65,0,0,0-1.75.57,1.66,1.66,0,0,0-.67,1.28,2.24,2.24,0,0,0,.48,1.37,38.85,38.85,0,0,0,4,3.65c2.06,1.73,3.32,2.82,3.75,3.27a11.39,11.39,0,0,1,2.34,3.18,8.13,8.13,0,0,1,.68,3.33,7.61,7.61,0,0,1-2.41,5.78A8.84,8.84,0,0,1,45.62,348a9.4,9.4,0,0,1-5.3-1.48,11.85,11.85,0,0,1-3.86-4.69L41,339.09q2.06,3.78,4.72,3.78a3.48,3.48,0,0,0,2.34-.82,2.4,2.4,0,0,0,1-1.87,3.25,3.25,0,0,0-.72-1.94,19.83,19.83,0,0,0-3.15-3,31.8,31.8,0,0,1-6-5.86,7.45,7.45,0,0,1-1.36-4.11,6.76,6.76,0,0,1,2.26-5.08,7.83,7.83,0,0,1,5.57-2.12,8.75,8.75,0,0,1,4.05,1,14.93,14.93,0,0,1,4.17,3.6ZM35.67,350.9v1.8H56.28v-1.8ZM58,318.83H75.25L65.08,342.09h9.5v5.21H57.19l10.12-23.11H58v-5.36ZM56.28,350.9H76.1v1.8H56.28v-1.8Zm21-32.07h5.82l5.3,10.22,5.27-10.22h5.75L91.13,335V347.3H85.68V335l-8.36-16.14ZM76.1,350.9v1.8h24.58v-1.8Zm42.75-28.2-4,3.54q-2.11-2.94-4.3-2.94a2.6,2.6,0,0,0-1.74.57,1.67,1.67,0,0,0-.68,1.28,2.24,2.24,0,0,0,.48,1.37,40.07,40.07,0,0,0,4,3.65q3.11,2.59,3.76,3.27a11.54,11.54,0,0,1,2.33,3.18,8.13,8.13,0,0,1,.69,3.33,7.62,7.62,0,0,1-2.42,5.78,8.83,8.83,0,0,1-6.31,2.28,9.37,9.37,0,0,1-5.29-1.48,11.78,11.78,0,0,1-3.87-4.69l4.55-2.75q2.06,3.78,4.72,3.78a3.52,3.52,0,0,0,2.35-.82,2.41,2.41,0,0,0,.94-1.87,3.3,3.3,0,0,0-.71-1.94,20.8,20.8,0,0,0-3.15-3,31.94,31.94,0,0,1-6-5.86,7.44,7.44,0,0,1-1.35-4.11,6.73,6.73,0,0,1,2.26-5.08,7.81,7.81,0,0,1,5.56-2.12,8.79,8.79,0,0,1,4.06,1,14.91,14.91,0,0,1,4.16,3.6Zm-18.17,28.2h20.61v1.8H100.68v-1.8Zm21-32.07h15.74v5.34h-5.19V347.3h-5.49V324.17h-5.06v-5.34Zm-.44,32.07v1.8h16.65v-1.8Zm19.94-32.07h5.48v9.79l7.72-9.79H161L151,331.52l10.91,15.78h-6.43l-8.78-12.64V347.3h-5.48V318.83Zm-3.29,32.07h24.58v1.8H137.94v-1.8Zm41.28-32.79a14.13,14.13,0,0,1,10.39,4.38A14.55,14.55,0,0,1,194,333.15a14.4,14.4,0,0,1-4.28,10.55,14.86,14.86,0,0,1-21-.12,14.68,14.68,0,0,1-4.24-10.52,14.77,14.77,0,0,1,7.4-12.95,14.64,14.64,0,0,1,7.44-2Zm-.05,5.31a8.88,8.88,0,0,0-6.64,2.75,9.53,9.53,0,0,0-2.7,7,9.1,9.1,0,0,0,3.39,7.47,9.31,9.31,0,0,0,6,2.15,8.82,8.82,0,0,0,6.56-2.78,10,10,0,0,0,0-13.76,8.86,8.86,0,0,0-6.63-2.81ZM162.52,350.9v1.8h33.29v-1.8Zm33.29,0H206.9v1.8H195.81v-1.8Zm14.36-32.07h6.43q6.21,0,9.23,1.53a12.11,12.11,0,0,1,5,5,16.1,16.1,0,0,1,2,8.09,16.28,16.28,0,0,1-1.09,6.05,12.67,12.67,0,0,1-3,4.58,10.68,10.68,0,0,1-4.18,2.51,29.36,29.36,0,0,1-7.78.7h-6.52V318.83Zm5.41,5.22V342h2.51a12.61,12.61,0,0,0,5.39-.85,6.5,6.5,0,0,0,2.74-2.86,10.47,10.47,0,0,0,1.06-4.95,9.42,9.42,0,0,0-2.53-7q-2.28-2.25-7.34-2.25ZM206.9,350.9v1.8h27.76v-1.8Zm44.46-32.79a14.09,14.09,0,0,1,10.38,4.38,14.55,14.55,0,0,1,4.35,10.66,14.41,14.41,0,0,1-4.29,10.55,14.86,14.86,0,0,1-21.05-.12,15,15,0,0,1,10.61-25.47Zm-.06,5.31a8.9,8.9,0,0,0-6.64,2.75,9.56,9.56,0,0,0-2.69,7,9.1,9.1,0,0,0,3.39,7.47,9.27,9.27,0,0,0,6,2.15A8.84,8.84,0,0,0,258,340a10.06,10.06,0,0,0,0-13.76,8.88,8.88,0,0,0-6.64-2.81ZM234.66,350.9h33.28v1.8H234.66v-1.8Zm33.28,0v1.8H279v-1.8Zm14.33-32.07H288a19,19,0,0,1,6.73.86,6.91,6.91,0,0,1,3.26,2.79,8.62,8.62,0,0,1,1.19,4.61,7.77,7.77,0,0,1-1.56,5,8,8,0,0,1-4.23,2.75,24.1,24.1,0,0,1-5.71.45V347.3h-5.42V318.83ZM287.69,330h1.72a9.52,9.52,0,0,0,2.83-.29,2.59,2.59,0,0,0,1.24-1,2.76,2.76,0,0,0,.46-1.62,2.58,2.58,0,0,0-1.28-2.4,7.36,7.36,0,0,0-3.44-.56h-1.53V330ZM279,350.9h22.19v1.8H279v-1.8Zm25.81-32.07h5.75a19.1,19.1,0,0,1,6.73.84,6.86,6.86,0,0,1,3.22,2.8,8.56,8.56,0,0,1,1.22,4.62,7.87,7.87,0,0,1-1.35,4.7,8.22,8.22,0,0,1-4.05,2.85l6.74,12.66h-5.93l-6.41-12.06h-.5V347.3h-5.42V318.83ZM310.27,330H312a6.73,6.73,0,0,0,3.58-.68,2.53,2.53,0,0,0,1-2.24,2.67,2.67,0,0,0-1.78-2.61,9.86,9.86,0,0,0-3-.3h-1.49V330Zm-9,20.94v1.8h23v-1.8Zm39.69-32.79a14.11,14.11,0,0,1,10.39,4.38,14.55,14.55,0,0,1,4.35,10.66,14.41,14.41,0,0,1-4.29,10.55,14.86,14.86,0,0,1-21.05-.12,14.68,14.68,0,0,1-4.24-10.52,14.77,14.77,0,0,1,7.4-12.95,14.64,14.64,0,0,1,7.44-2Zm-.05,5.31a8.88,8.88,0,0,0-6.64,2.75,9.52,9.52,0,0,0-2.69,7,9.12,9.12,0,0,0,3.38,7.47,9.31,9.31,0,0,0,6,2.15,8.82,8.82,0,0,0,6.56-2.78,10,10,0,0,0,0-13.76,8.86,8.86,0,0,0-6.63-2.81ZM324.22,350.9h33.29v1.8H324.22v-1.8Zm36.56-32.07h6.43q6.21,0,9.23,1.53a12.11,12.11,0,0,1,5,5,17.53,17.53,0,0,1,.87,14.14,12.67,12.67,0,0,1-3,4.58,10.68,10.68,0,0,1-4.18,2.51,29.36,29.36,0,0,1-7.78.7h-6.52V318.83Zm5.41,5.22V342h2.51a12.61,12.61,0,0,0,5.39-.85,6.56,6.56,0,0,0,2.74-2.86,10.47,10.47,0,0,0,1.06-4.95,9.42,9.42,0,0,0-2.53-7q-2.28-2.25-7.34-2.25Zm-8.68,26.85v1.8h27.75v-1.8Zm30.81-32.07h5.44v18.42a9.45,9.45,0,0,0,.42,3.37,3.32,3.32,0,0,0,1.37,1.58,4.36,4.36,0,0,0,2.31.59,4.49,4.49,0,0,0,2.47-.66,3.52,3.52,0,0,0,1.44-1.68,12.53,12.53,0,0,0,.39-3.87V318.83h5.44v17a24.83,24.83,0,0,1-.48,6,9.18,9.18,0,0,1-5,5.51A10.62,10.62,0,0,1,398,348a10,10,0,0,1-5.39-1.42,8.21,8.21,0,0,1-3.28-3.56q-1-2.14-1-7.23v-17Zm-3.06,32.07h25.38v1.8H385.26v-1.8Zm28.67-32.07h5.48v9.79l7.72-9.79h6.52l-9.94,12.69,10.91,15.78h-6.43l-8.78-12.64V347.3h-5.48V318.83Zm-3.29,32.07v1.8h24.58v-1.8Zm54-27.06-3.79,3.62a11.78,11.78,0,0,0-8.71-4.08,9.55,9.55,0,0,0-9.68,9.66,10,10,0,0,0,1.24,5,8.79,8.79,0,0,0,3.5,3.47,10.18,10.18,0,0,0,5,1.26,10.4,10.4,0,0,0,4.32-.88,15.37,15.37,0,0,0,4.3-3.21l3.68,3.84a20.22,20.22,0,0,1-6,4.26,16.14,16.14,0,0,1-6.41,1.19,14.73,14.73,0,0,1-10.86-4.21A14.55,14.55,0,0,1,437.06,333a14.74,14.74,0,0,1,1.93-7.58,14.23,14.23,0,0,1,5.51-5.31,15.57,15.57,0,0,1,7.73-2,16.38,16.38,0,0,1,12.41,5.73ZM435.22,350.9h30.91v1.8H435.22v-1.8Zm41.24-32.07h5.45v18.89a19.24,19.24,0,0,1-.72,6.33,6,6,0,0,1-2.36,2.89,7,7,0,0,1-3.95,1.07,10,10,0,0,1-8-4.12l3.91-3.65a9.12,9.12,0,0,0,2.2,2,3.63,3.63,0,0,0,1.77.51A1.37,1.37,0,0,0,476,342a7.59,7.59,0,0,0,.42-3.23V318.83ZM466.13,350.9v1.8h19v-1.8ZM488,318.83h5.37V347.3H488V318.83Zm-2.87,32.07h11.09v1.8H485.16v-1.8Zm11.09,0v1.8h11.09v-1.8Zm17.09-32.07h5.31l6.58,19.85,6.67-19.85h5.23l4.8,28.47H536.7l-3.06-18-6.06,18h-4.77l-6-18-3.12,18h-5.28l4.91-28.47Zm-6,32.07H543v1.8H507.34v-1.8Zm38.94-32.07h15.54v5.3H551.66v5.15h10.16v5.21H551.66V342h10.16v5.33H546.28V318.83ZM543,350.9v1.8h20.61v-1.8Zm23.86-3.6V318.83h4.47a23.36,23.36,0,0,1,5.69.5,7.64,7.64,0,0,1,4.07,2.51,6.63,6.63,0,0,1,1.51,4.34,6.26,6.26,0,0,1-.69,2.95,7.44,7.44,0,0,1-2.23,2.49,8.93,8.93,0,0,1,3.79,3.05,7.7,7.7,0,0,1,1.2,4.32,8.06,8.06,0,0,1-1.24,4.38,8,8,0,0,1-3.19,2.95,12.34,12.34,0,0,1-5.41,1Zm5.42-23.3v6h1.18a4.34,4.34,0,0,0,2.93-.84,2.82,2.82,0,0,0,1-2.26,2.64,2.64,0,0,0-.91-2.12,4.16,4.16,0,0,0-2.77-.78Zm0,10.83v7.3h1.36c2.24,0,3.75-.28,4.54-.85a2.87,2.87,0,0,0,1.17-2.48,3.46,3.46,0,0,0-1.38-2.9,7.56,7.56,0,0,0-4.57-1.07Zm-8.67,16.07h23v1.8h-23v-1.8Zm26.24-32.07h5.42v23.3h7.9v5.17H589.86V318.83Zm-3.25,32.07v1.8h17.44v-1.8Zm20.31-32.07h5.38V347.3h-5.38V318.83Zm-2.87,32.07h11.09v1.8H604.05Z"/></g></g></svg>